<svg width="14" height="14" viewBox="0 0 14 14" fill="none" xmlns="http://www.w3.org/2000/svg">
<path d="M0.883939 1.11612C0.395783 1.60427 0.395784 2.39573 0.883939 2.88388L5.23223 7.23217L1.11605 11.3483C0.627894 11.8365 0.627894 12.628 1.11605 13.1161C1.60421 13.6043 2.39566 13.6043 2.88382 13.1161L6.99999 8.99994L11.1162 13.1161C11.6043 13.6043 12.3958 13.6043 12.8839 13.1161C13.3721 12.628 13.3721 11.8365 12.8839 11.3483L8.76776 7.23217L13.116 2.88388C13.6042 2.39573 13.6042 1.60427 13.116 1.11612C12.6279 0.627962 11.8364 0.627962 11.3483 1.11612L6.99999 5.46441L2.65171 1.11612C2.16355 0.627961 1.37209 0.627961 0.883939 1.11612Z" fill="white" fill-opacity="0.9"/>
</svg>
